<?xml version="1.0" encoding="UTF-8" standalone="no"?>
<!DOCTYPE svg PUBLIC "-//W3C//DTD SVG 1.1//EN" "http://www.w3.org/Graphics/SVG/1.1/DTD/svg11.dtd">
<svg width="100%" height="100%" viewBox="0 0 1024 1024" version="1.1" xmlns="http://www.w3.org/2000/svg" xmlns:xlink="http://www.w3.org/1999/xlink" xml:space="preserve" xmlns:serif="http://www.serif.com/" style="fill-rule:evenodd;clip-rule:evenodd;stroke-linejoin:round;stroke-miterlimit:2;">
    <g transform="matrix(44.8635,0,0,44.8635,214.8,158.668)">
        <path d="M11.5,5C11.501,5 11.501,5 11.502,5C15.067,5 18.002,7.934 18.002,11.5C18.002,12.611 17.717,13.703 17.175,14.672L17.971,16.754C18.015,16.868 18.037,16.989 18.037,17.111C18.037,17.66 17.586,18.111 17.037,18.111C16.946,18.111 16.855,18.099 16.767,18.074L14.279,17.377C13.411,17.787 12.462,18 11.502,18C7.936,18 5.002,15.066 5.002,11.5C5.002,7.935 7.935,5.001 11.5,5" style="fill:url(#_Radial1);fill-rule:nonzero;"/>
    </g>
    <g transform="matrix(1.73215,0,0,1.73215,-2548.88,-3607.85)">
        <g transform="matrix(26.6667,0,0,26.6667,1627.21,2181.96)">
            <path d="M10.5,7.5C10.5,7.226 10.274,7 10,7C9.726,7 9.5,7.226 9.5,7.5L9.5,11.5C9.5,11.774 9.726,12 10,12C10.274,12 10.5,11.774 10.5,11.5L10.5,7.5Z" style="fill:url(#_Linear2);fill-rule:nonzero;"/>
        </g>
        <g transform="matrix(26.6667,0,0,26.6667,1627.21,2181.96)">
            <path d="M10,14.5C10.411,14.5 10.75,14.161 10.75,13.75C10.75,13.339 10.411,13 10,13C9.589,13 9.25,13.339 9.25,13.75C9.25,14.161 9.589,14.5 10,14.5" style="fill:url(#_Linear3);fill-rule:nonzero;"/>
        </g>
    </g>
    <g transform="matrix(56.1333,0,0,56.1333,-112.382,-59.4626)">
        <path d="M8.538,2C8.538,2 8.538,2 8.537,2C4.972,2 2.037,4.934 2.037,8.5C2.037,9.611 2.322,10.703 2.864,11.672L2.068,13.754C2.024,13.868 2.002,13.989 2.002,14.111C2.002,14.66 2.453,15.111 3.002,15.111C3.093,15.111 3.184,15.099 3.272,15.074L5.759,14.377C6.627,14.787 7.576,15 8.536,15C12.102,15 15.036,12.066 15.036,8.5C15.036,4.935 12.104,2.002 8.539,2" style="fill:url(#_Radial4);fill-rule:nonzero;"/>
    </g>
    <g transform="matrix(40.2733,0,0,40.2733,-117.466,-62.4911)">
        <path d="M15.53,8.47L15.446,8.397C15.185,8.204 14.828,8.201 14.564,8.39L14.47,8.47L12,10.939L9.53,8.469L9.446,8.397C9.185,8.204 8.828,8.201 8.564,8.39L8.47,8.47L8.397,8.554C8.204,8.815 8.201,9.172 8.39,9.436L8.47,9.53L10.939,12L8.469,14.47L8.397,14.554C8.204,14.815 8.201,15.172 8.39,15.436L8.47,15.53L8.554,15.603C8.815,15.796 9.172,15.799 9.436,15.61L9.53,15.53L12,13.061L14.47,15.531L14.554,15.603C14.815,15.796 15.172,15.799 15.436,15.61L15.53,15.53L15.603,15.446C15.796,15.185 15.799,14.828 15.61,14.564L15.53,14.47L13.061,12L15.531,9.53L15.603,9.446C15.796,9.185 15.799,8.828 15.61,8.564L15.53,8.47Z" style="fill:url(#_Linear5);fill-rule:nonzero;"/>
    </g>
    <defs>
        <radialGradient id="_Radial1" cx="0" cy="0" r="1" gradientUnits="userSpaceOnUse" gradientTransform="matrix(11.1055,9.4288,-9.4288,11.1055,4.6834,6.20765)"><stop offset="0" style="stop-color:rgb(215,77,5);stop-opacity:1"/><stop offset="0.47" style="stop-color:rgb(189,75,4);stop-opacity:1"/><stop offset="0.52" style="stop-color:rgb(236,145,19);stop-opacity:1"/><stop offset="0.57" style="stop-color:rgb(250,165,23);stop-opacity:1"/><stop offset="1" style="stop-color:rgb(229,145,5);stop-opacity:1"/></radialGradient>
        <linearGradient id="_Linear2" x1="0" y1="0" x2="1" y2="0" gradientUnits="userSpaceOnUse" gradientTransform="matrix(3.603,7.686,-7.686,3.603,8,7)"><stop offset="0" style="stop-color:rgb(74,74,74);stop-opacity:1"/><stop offset="1" style="stop-color:rgb(33,33,33);stop-opacity:1"/></linearGradient>
        <linearGradient id="_Linear3" x1="0" y1="0" x2="1" y2="0" gradientUnits="userSpaceOnUse" gradientTransform="matrix(3.603,7.686,-7.686,3.603,8,7)"><stop offset="0" style="stop-color:rgb(74,74,74);stop-opacity:1"/><stop offset="1" style="stop-color:rgb(36,36,36);stop-opacity:1"/></linearGradient>
        <radialGradient id="_Radial4" cx="0" cy="0" r="1" gradientUnits="userSpaceOnUse" gradientTransform="matrix(8.5236,9.50221,-9.43451,8.55688,4.37511,3.52351)"><stop offset="0" style="stop-color:rgb(248,63,84);stop-opacity:1"/><stop offset="1" style="stop-color:rgb(202,33,52);stop-opacity:1"/></radialGradient>
        <linearGradient id="_Linear5" x1="0" y1="0" x2="1" y2="0" gradientUnits="userSpaceOnUse" gradientTransform="matrix(3.906,4.06,-4.06,3.906,8.685,12.332)"><stop offset="0" style="stop-color:rgb(253,253,253);stop-opacity:1"/><stop offset="1" style="stop-color:rgb(254,203,230);stop-opacity:1"/></linearGradient>
    </defs>
</svg>
